#!OML:ASF F:\VICON\USERDATA\INSTALL\rory3\rory3.ASF
:FULLY-SPECIFIED
:DEGREES
213
root -1.30931 16.144 2.64872 -0.679929 3.24746 0.837226
lowerback 13.6482 0.5511 -5.42357
upperback -4.39474 -0.00374325 2.27179
thorax -12.5898 0.547368 5.60347
lowerneck -10.4625 -5.80569 -3.81454
upperneck 18.4806 -8.06575 3.75011
head 7.72666 -3.77503 1.05845
rclavicle 5.81445e-015 1.51076e-014
rhumerus -36.0897 -8.98271 -77.2204
rradius 22.3568
rwrist 4.16208
rhand -11.5365 20.2252
rfingers 7.12502
rthumb 14.5036 -9.24784
lclavicle 5.81445e-015 1.51076e-014
lhumerus -41.8372 8.06793 83.6695
lradius 18.5432
lwrist -6.01308
lhand -4.05816 20.2129
lfingers 7.12502
lthumb 21.6981 49.017
rfemur -14.5716 14.2271 24.58
rtibia 28.8235
rfoot -11.0327 -9.28884
rtoes 2.38102
lfemur -20.4745 2.80994 -19.9234
ltibia 74.8221
lfoot 17.7046 -2.47095
ltoes 7.94976
214
root -1.31098 16.1452 2.76991 -0.704468 3.08646 0.711256
lowerback 13.5727 0.638843 -5.2487
upperback -4.3445 0.146648 2.22917
thorax -12.5042 0.597407 5.41622
lowerneck -10.6216 -5.88792 -3.72578
upperneck 18.7264 -8.19539 3.7124
head 7.83621 -3.82832 1.01065
rclavicle 1.06847e-015 -1.19271e-015
rhumerus -35.3852 -9.04189 -77.3886
rradius 22.7197
rwrist 4.16131
rhand -11.5394 19.9499
rfingers 7.12502
rthumb 14.5008 -9.52334
lclavicle 1.06847e-015 -1.19271e-015
lhumerus -41.8692 8.1342 83.599
lradius 18.5162
lwrist -5.88127
lhand -4.06438 20.2367
lfingers 7.12502
lthumb 21.6921 49.0414
rfemur -13.9099 13.949 24.8798
rtibia 28.5553
rfoot -11.1956 -9.03143
rtoes 0.979839
lfemur -21.6589 3.04153 -19.9332
ltibia 75.4072
lfoot 15.3985 -3.62184
ltoes 8.1203
215
root -1.3148 16.1426 2.88945 -0.646565 3.03485 0.629176
lowerback 13.5235 0.696338 -5.17395
upperback -4.31471 0.240377 2.22538
thorax -12.4517 0.632784 5.34499
lowerneck -10.5893 -5.91713 -3.95692
upperneck 18.7687 -8.25294 3.99199
head 7.86948 -3.84541 1.13324
rclavicle 8.44835e-015 -9.14409e-015
rhumerus -34.7193 -8.883 -77.5365
rradius 23.356
rwrist 4.44418
rhand -12.2888 20.6571
rfingers 7.12502
rthumb 13.7787 -8.86667
lclavicle 8.44835e-015 -9.14409e-015
lhumerus -41.9019 8.17075 83.6119
lradius 18.5189
lwrist -5.66227
lhand -4.06665 20.0737
lfingers 7.12502
lthumb 21.69 48.8786
rfemur -13.2903 13.8122 25.1284
rtibia 28.245
rfoot -11.3404 -9.00433
rtoes -0.0398216
lfemur -22.8819 3.06742 -20.0284
ltibia 75.7966
lfoot 12.2968 -4.19679
ltoes 6.31706
216
root -1.32002 16.144 3.01042 -0.698712 2.81651 0.504137
lowerback 13.6478 0.814144 -5.07958
upperback -4.34588 0.409564 2.21735
thorax -12.584 0.710061 5.24338
lowerneck -10.2841 -5.93167 -4.13645
upperneck 18.7118 -8.2885 4.19451
head 7.81439 -3.86205 1.2342
rclavicle -7.30534e-015 3.97569e-016
rhumerus -34.3722 -8.55578 -77.7501
rradius 24.1784
rwrist 4.24858
rhand -12.4711 20.4507
rfingers 7.12502
rthumb 13.603 -9.08492
lclavicle -7.30534e-015 3.97569e-016
lhumerus -42.1389 7.88935 83.7331
lradius 18.6711
lwrist -5.00997
lhand -4.03508 20.1985
lfingers 7.12502
lthumb 21.7203 49
rfemur -12.546 13.9766 25.4871
rtibia 27.968
rfoot -11.5376 -9.06952
rtoes -0.501845
lfemur -24.0062 3.27874 -19.9907
ltibia 75.942
lfoot 9.6162 -4.17087
ltoes 7.25048
217
root -1.32537 16.1473 3.13291 -0.786155 2.50915 0.334769
lowerback 13.6454 0.935418 -4.95584
upperback -4.32867 0.59531 2.20736
thorax -12.5847 0.786682 5.11551
lowerneck -10.2 -5.99897 -4.09696
upperneck 18.793 -8.38165 4.12393
head 7.82548 -3.91071 1.19669
rclavicle 2.88238e-015 1.31198e-014
rhumerus -34.0014 -8.16153 -78.1066
rradius 25.0005
rwrist 3.76036
rhand -12.2497 18.1451
rfingers 7.12502
rthumb 13.8164 -11.376
lclavicle 2.88238e-015 1.31198e-014
lhumerus -42.3342 7.89749 83.6443
lradius 18.8922
lwrist -4.45021
lhand -3.95126 20.3813
lfingers 7.12502
lthumb 21.8008 49.1734
rfemur -11.8058 14.1405 25.8988
rtibia 27.7526
rfoot -11.8281 -8.95553
rtoes -0.708185
lfemur -25.0597 3.58829 -19.8717
ltibia 75.8789
lfoot 7.24928 -4.20738
ltoes 6.70562
218
root -1.32973 16.1415 3.25465 -0.838647 2.35185 0.209303
lowerback 13.5893 1.0209 -4.8491
upperback -4.30749 0.727706 2.16112
thorax -12.54 0.836048 4.96926
lowerneck -10.0594 -6.02122 -3.84181
upperneck 18.8196 -8.42542 3.93461
head 7.79091 -3.93348 1.09367
rclavicle 4.87022e-015 -4.37326e-015
rhumerus -33.4243 -8.06481 -78.4258
rradius 25.3738
rwrist 3.34034
rhand -12.2425 16.2783
rfingers 7.12502
rthumb 13.8233 -13.2424
lclavicle 4.87022e-015 -4.37326e-015
lhumerus -42.5368 8.08402 83.3782
lradius 19.1075
lwrist -4.24953
lhand -3.69384 20.5526
lfingers 7.12502
lthumb 22.0479 49.3157
rfemur -11.1257 14.2447 26.2391
rtibia 27.5981
rfoot -12.1904 -8.88935
rtoes -0.766857
lfemur -26.078 3.65374 -19.8757
ltibia 75.6293
lfoot 5.07884 -4.1012
ltoes 4.91986
219
root -1.33218 16.1297 3.3721 -0.833011 2.22468 0.214046
lowerback 13.5042 1.12379 -4.83068
upperback -4.28666 0.863828 2.07677
thorax -12.4796 0.891813 4.83029
lowerneck -9.66901 -6.01998 -3.73358
upperneck 18.577 -8.45561 4.00525
head 7.64058 -3.94391 1.11118
rclavicle 1.26725e-014 -2.74323e-014
rhumerus -32.8571 -8.1276 -78.5684
rradius 25.6554
rwrist 3.14676
rhand -12.2552 17.2829
rfingers 7.12502
rthumb 13.811 -12.2387
lclavicle 1.26725e-014 -2.74323e-014
lhumerus -42.5857 8.3573 83.0906
lradius 19.0431
lwrist -4.51849
lhand -3.56429 20.3986
lfingers 7.12502
lthumb 22.1723 49.147
rfemur -10.5785 14.2413 26.4107
rtibia 27.5361
rfoot -12.584 -8.8089
rtoes -1.49891
lfemur -27.0424 3.56338 -20.0481
ltibia 75.1691
lfoot 3.41077 -3.57436
ltoes 5.1892
